# xmcd
# 
# Track frame offsets:
#     150
#     51091
#     100378
#     132500
#     149829
#     167416
#     198475
#     301866
# 
# Disc length: 4160
# 
# Revision: 1
# Processed by: cddbd v1.5.2PL0 Copyright (c) Steve Scherf et al.
# Submitted via: fre:ac v1.1beta1pre3
# 
DISCID=73103e08
DTITLE=Napoleon Hill - Réfléchissez et devenez riche - CD1
DYEAR=2007
DGENRE=New Age
TTITLE0=Introduction - Une pensée est un fait
TTITLE1=Première étape vers la richesse - le désir
TTITLE2=Deuxième étape vers la richesse - la foi
TTITLE3=Troisième étape vers la richesse - l'autosuggestion
TTITLE4=Quatrième étape vers la richesse - la spécialisation
TTITLE5=Cinquième étape vers la richesse - l'imagination
TTITLE6=Sixième étape vers la richesse - l'élaboration des plans
TTITLE7=Septième étape vers la richesse - la décision
EXTD=YEAR: 2007
EXTT0=
EXTT1=
EXTT2=
EXTT3=
EXTT4=
EXTT5=
EXTT6=
EXTT7=
PLAYORDER=
